<svg width="115" height="114" viewBox="0 0 115 114" fill="none" xmlns="http://www.w3.org/2000/svg">
<rect y="0.000991821" width="3.08225" height="3.10811" rx="1.34409" fill="#4F77FF"/>
<rect x="12.3301" y="0.000976562" width="3.08225" height="3.10811" rx="1.34409" fill="#4F77FF"/>
<rect x="24.6602" width="3.08225" height="3.10811" rx="1.34409" fill="#4F77FF"/>
<rect x="36.9863" y="0.000396729" width="3.08225" height="3.10811" rx="1.34409" fill="#4F77FF"/>
<rect x="49.3145" y="0.000793457" width="3.08225" height="3.10811" rx="1.34409" fill="#4F77FF"/>
<rect x="61.6445" y="0.000793457" width="3.08225" height="3.10811" rx="1.34409" fill="#4F77FF"/>
<rect x="73.9746" y="0.000762939" width="3.08225" height="3.10811" rx="1.34409" fill="#4F77FF"/>
<rect x="86.3027" y="0.00119019" width="3.08225" height="3.10811" rx="1.34409" fill="#4F77FF"/>
<rect x="98.6328" y="0.000213623" width="3.08225" height="3.10811" rx="1.34409" fill="#4F77FF"/>
<rect x="110.963" y="0.000183105" width="3.08225" height="3.10811" rx="1.34409" fill="#4F77FF"/>
<rect y="12.4335" width="3.08225" height="3.10811" rx="1.34409" fill="#4F77FF"/>
<rect x="12.3301" y="12.4335" width="3.08225" height="3.10811" rx="1.34409" fill="#4F77FF"/>
<rect x="24.6582" y="12.4339" width="3.08225" height="3.10811" rx="1.34409" fill="#4F77FF"/>
<rect x="36.9883" y="12.4329" width="3.08225" height="3.10811" rx="1.34409" fill="#4F77FF"/>
<rect x="49.3145" y="12.4333" width="3.08225" height="3.10811" rx="1.34409" fill="#4F77FF"/>
<rect x="61.6445" y="12.4333" width="3.08225" height="3.10811" rx="1.34409" fill="#4F77FF"/>
<rect x="73.9746" y="12.4333" width="3.08225" height="3.10811" rx="1.34409" fill="#4F77FF"/>
<rect x="86.3027" y="12.4337" width="3.08225" height="3.10811" rx="1.34409" fill="#4F77FF"/>
<rect x="98.6328" y="12.4327" width="3.08225" height="3.10811" rx="1.34409" fill="#4F77FF"/>
<rect x="110.963" y="12.4327" width="3.08225" height="3.10811" rx="1.34409" fill="#4F77FF"/>
<rect y="24.866" width="3.08225" height="3.10811" rx="1.34409" fill="#4F77FF"/>
<rect x="12.3301" y="24.866" width="3.08225" height="3.10811" rx="1.34409" fill="#4F77FF"/>
<rect x="24.6582" y="24.8664" width="3.08225" height="3.10811" rx="1.34409" fill="#4F77FF"/>
<rect x="36.9883" y="24.8654" width="3.08225" height="3.10811" rx="1.34409" fill="#4F77FF"/>
<rect x="49.3145" y="24.8658" width="3.08225" height="3.10811" rx="1.34409" fill="#4F77FF"/>
<rect x="61.6465" y="24.8658" width="3.08225" height="3.10811" rx="1.34409" fill="#4F77FF"/>
<rect x="73.9766" y="24.8658" width="3.08225" height="3.10811" rx="1.34409" fill="#4F77FF"/>
<rect x="86.3027" y="24.8662" width="3.08225" height="3.10811" rx="1.34409" fill="#4F77FF"/>
<rect x="98.6309" y="24.8666" width="3.08225" height="3.10811" rx="1.34409" fill="#4F77FF"/>
<rect x="110.961" y="24.8666" width="3.08225" height="3.10811" rx="1.34409" fill="#4F77FF"/>
<rect y="37.298" width="3.08225" height="3.10811" rx="1.34409" fill="#4F77FF"/>
<rect x="12.3301" y="37.298" width="3.08225" height="3.10811" rx="1.34409" fill="#4F77FF"/>
<rect x="24.6602" y="37.297" width="3.08225" height="3.10811" rx="1.34409" fill="#4F77FF"/>
<rect x="36.9863" y="37.2974" width="3.08225" height="3.10811" rx="1.34409" fill="#4F77FF"/>
<rect x="49.3145" y="37.2978" width="3.08225" height="3.10811" rx="1.34409" fill="#4F77FF"/>
<rect x="61.6445" y="37.2978" width="3.08225" height="3.10811" rx="1.34409" fill="#4F77FF"/>
<rect x="73.9746" y="37.2978" width="3.08225" height="3.10811" rx="1.34409" fill="#4F77FF"/>
<rect x="86.3027" y="37.2982" width="3.08225" height="3.10811" rx="1.34409" fill="#4F77FF"/>
<rect x="98.6328" y="37.2972" width="3.08225" height="3.10811" rx="1.34409" fill="#4F77FF"/>
<rect x="110.963" y="37.2972" width="3.08225" height="3.10811" rx="1.34409" fill="#4F77FF"/>
<rect y="49.7306" width="3.08225" height="3.10811" rx="1.34409" fill="#4F77FF"/>
<rect x="12.3301" y="49.7305" width="3.08225" height="3.10811" rx="1.34409" fill="#4F77FF"/>
<rect x="24.6582" y="49.7309" width="3.08225" height="3.10811" rx="1.34409" fill="#4F77FF"/>
<rect x="36.9883" y="49.7299" width="3.08225" height="3.10811" rx="1.34409" fill="#4F77FF"/>
<rect x="49.3145" y="49.7303" width="3.08225" height="3.10811" rx="1.34409" fill="#4F77FF"/>
<rect x="61.6445" y="49.7303" width="3.08225" height="3.10811" rx="1.34409" fill="#4F77FF"/>
<rect x="73.9746" y="49.7303" width="3.08225" height="3.10811" rx="1.34409" fill="#4F77FF"/>
<rect x="86.3027" y="49.7307" width="3.08225" height="3.10811" rx="1.34409" fill="#4F77FF"/>
<rect x="98.6328" y="49.7297" width="3.08225" height="3.10811" rx="1.34409" fill="#4F77FF"/>
<rect x="110.963" y="49.7297" width="3.08225" height="3.10811" rx="1.34409" fill="#4F77FF"/>
<rect y="62.1631" width="3.08225" height="3.10811" rx="1.34409" fill="#4F77FF"/>
<rect x="12.3301" y="62.1631" width="3.08225" height="3.10811" rx="1.34409" fill="#4F77FF"/>
<rect x="24.6582" y="62.1634" width="3.08225" height="3.10811" rx="1.34409" fill="#4F77FF"/>
<rect x="36.9883" y="62.1625" width="3.08225" height="3.10811" rx="1.34409" fill="#4F77FF"/>
<rect x="49.3145" y="62.1629" width="3.08225" height="3.10811" rx="1.34409" fill="#4F77FF"/>
<rect x="61.6445" y="62.1629" width="3.08225" height="3.10811" rx="1.34409" fill="#4F77FF"/>
<rect x="73.9766" y="62.1628" width="3.08225" height="3.10811" rx="1.34409" fill="#4F77FF"/>
<rect x="86.3027" y="62.1632" width="3.08225" height="3.10811" rx="1.34409" fill="#4F77FF"/>
<rect x="98.6328" y="62.1623" width="3.08225" height="3.10811" rx="1.34409" fill="#4F77FF"/>
<rect x="110.963" y="62.1623" width="3.08225" height="3.10811" rx="1.34409" fill="#4F77FF"/>
<rect y="74.5956" width="3.08225" height="3.10811" rx="1.34409" fill="#4F77FF"/>
<rect y="86.5857" width="3.08225" height="3.10811" rx="1.34409" fill="#4F77FF"/>
<rect y="98.5764" width="3.08225" height="3.10811" rx="1.34409" fill="#4F77FF"/>
<rect y="110.567" width="3.08225" height="3.10811" rx="1.34409" fill="#4F77FF"/>
<rect x="12.3301" y="74.5956" width="3.08225" height="3.10811" rx="1.34409" fill="#4F77FF"/>
<rect x="12.3301" y="86.5857" width="3.08225" height="3.10811" rx="1.34409" fill="#4F77FF"/>
<rect x="12.3301" y="98.5764" width="3.08225" height="3.10811" rx="1.34409" fill="#4F77FF"/>
<rect x="12.3301" y="110.567" width="3.08225" height="3.10811" rx="1.34409" fill="#4F77FF"/>
<rect x="24.6582" y="74.596" width="3.08225" height="3.10811" rx="1.34409" fill="#4F77FF"/>
<rect x="24.6582" y="86.5861" width="3.08225" height="3.10811" rx="1.34409" fill="#4F77FF"/>
<rect x="24.6582" y="98.5768" width="3.08225" height="3.10811" rx="1.34409" fill="#4F77FF"/>
<rect x="24.6582" y="110.568" width="3.08225" height="3.10811" rx="1.34409" fill="#4F77FF"/>
<rect x="36.9883" y="74.595" width="3.08225" height="3.10811" rx="1.34409" fill="#4F77FF"/>
<rect x="36.9883" y="86.5851" width="3.08225" height="3.10811" rx="1.34409" fill="#4F77FF"/>
<rect x="36.9883" y="98.5758" width="3.08225" height="3.10811" rx="1.34409" fill="#4F77FF"/>
<rect x="36.9863" y="110.568" width="3.08225" height="3.10811" rx="1.34409" fill="#4F77FF"/>
<rect x="49.3145" y="74.5954" width="3.08225" height="3.10811" rx="1.34409" fill="#4F77FF"/>
<rect x="49.3145" y="86.5855" width="3.08225" height="3.10811" rx="1.34409" fill="#4F77FF"/>
<rect x="49.3145" y="98.5762" width="3.08225" height="3.10811" rx="1.34409" fill="#4F77FF"/>
<rect x="49.3164" y="110.567" width="3.08225" height="3.10811" rx="1.34409" fill="#4F77FF"/>
<rect x="61.6465" y="74.5954" width="3.08225" height="3.10811" rx="1.34409" fill="#4F77FF"/>
<rect x="61.6445" y="86.5855" width="3.08225" height="3.10811" rx="1.34409" fill="#4F77FF"/>
<rect x="61.6465" y="98.5762" width="3.08225" height="3.10811" rx="1.34409" fill="#4F77FF"/>
<rect x="61.6465" y="110.567" width="3.08225" height="3.10811" rx="1.34409" fill="#4F77FF"/>
<rect x="73.9766" y="74.5954" width="3.08225" height="3.10811" rx="1.34409" fill="#4F77FF"/>
<rect x="73.9746" y="86.5855" width="3.08225" height="3.10811" rx="1.34409" fill="#4F77FF"/>
<rect x="73.9766" y="98.5762" width="3.08225" height="3.10811" rx="1.34409" fill="#4F77FF"/>
<rect x="73.9766" y="110.567" width="3.08225" height="3.10811" rx="1.34409" fill="#4F77FF"/>
<rect x="86.3027" y="74.5958" width="3.08225" height="3.10811" rx="1.34409" fill="#4F77FF"/>
<rect x="86.3027" y="86.5859" width="3.08225" height="3.10811" rx="1.34409" fill="#4F77FF"/>
<rect x="86.3027" y="98.5766" width="3.08225" height="3.10811" rx="1.34409" fill="#4F77FF"/>
<rect x="86.3047" y="110.567" width="3.08225" height="3.10811" rx="1.34409" fill="#4F77FF"/>
<rect x="98.6309" y="74.5962" width="3.08225" height="3.10811" rx="1.34409" fill="#4F77FF"/>
<rect x="98.6328" y="86.585" width="3.08225" height="3.10811" rx="1.34409" fill="#4F77FF"/>
<rect x="98.6309" y="98.577" width="3.08225" height="3.10811" rx="1.34409" fill="#4F77FF"/>
<rect x="98.6309" y="110.568" width="3.08225" height="3.10811" rx="1.34409" fill="#4F77FF"/>
<rect x="110.961" y="74.5962" width="3.08225" height="3.10811" rx="1.34409" fill="#4F77FF"/>
<rect x="110.963" y="86.5849" width="3.08225" height="3.10811" rx="1.34409" fill="#4F77FF"/>
<rect x="110.961" y="98.577" width="3.08225" height="3.10811" rx="1.34409" fill="#4F77FF"/>
<rect x="110.961" y="110.568" width="3.08225" height="3.10811" rx="1.34409" fill="#4F77FF"/>
</svg>
