<svg width="9" height="7" viewBox="0 0 9 7" fill="none" xmlns="http://www.w3.org/2000/svg">
<path fill-rule="evenodd" clip-rule="evenodd" d="M4.16468 0.86575C4.20365 0.712079 4.29874 0.581063 4.42905 0.501514C4.55935 0.421964 4.71421 0.400396 4.85955 0.44155L7.96011 1.32001C8.10544 1.36121 8.22935 1.46176 8.30458 1.59954C8.37981 1.73733 8.40021 1.90106 8.36129 2.05475L7.5305 5.33321C7.4895 5.48444 7.39396 5.61259 7.26447 5.69007C7.13497 5.76755 6.98188 5.78814 6.83816 5.74742C6.69444 5.7067 6.5716 5.60793 6.49609 5.47237C6.42058 5.33681 6.39844 5.17532 6.43445 5.02267L6.9107 3.14329L1.21712 6.61909C1.08679 6.69866 0.931903 6.72022 0.786536 6.67903C0.641169 6.63785 0.517229 6.53729 0.441981 6.39948C0.366734 6.26167 0.346343 6.0979 0.385294 5.94419C0.424245 5.79048 0.519347 5.65943 0.64968 5.57986L6.34326 2.10406L4.56586 1.60049C4.42053 1.55928 4.29663 1.45874 4.22139 1.32095C4.14616 1.18317 4.12576 1.01943 4.16468 0.86575V0.86575Z" fill="#34C635"/>
</svg>
