<svg width="18" height="4" viewBox="0 0 18 4" fill="none" xmlns="http://www.w3.org/2000/svg">
<path d="M2 2.00001H2.01H2ZM9 2.00001H9.01H9ZM16 2.00001H16.01H16ZM3 2.00001C3 2.25084 2.89464 2.49139 2.70711 2.66875C2.51957 2.84611 2.26522 2.94575 2 2.94575C1.73478 2.94575 1.48043 2.84611 1.29289 2.66875C1.10536 2.49139 1 2.25084 1 2.00001C1 1.74919 1.10536 1.50863 1.29289 1.33127C1.48043 1.15391 1.73478 1.05427 2 1.05427C2.26522 1.05427 2.51957 1.15391 2.70711 1.33127C2.89464 1.50863 3 1.74919 3 2.00001ZM10 2.00001C10 2.25084 9.89464 2.49139 9.70711 2.66875C9.51957 2.84611 9.26522 2.94575 9 2.94575C8.73478 2.94575 8.48043 2.84611 8.29289 2.66875C8.10536 2.49139 8 2.25084 8 2.00001C8 1.74919 8.10536 1.50863 8.29289 1.33127C8.48043 1.15391 8.73478 1.05427 9 1.05427C9.26522 1.05427 9.51957 1.15391 9.70711 1.33127C9.89464 1.50863 10 1.74919 10 2.00001ZM17 2.00001C17 2.25084 16.8946 2.49139 16.7071 2.66875C16.5196 2.84611 16.2652 2.94575 16 2.94575C15.7348 2.94575 15.4804 2.84611 15.2929 2.66875C15.1054 2.49139 15 2.25084 15 2.00001C15 1.74919 15.1054 1.50863 15.2929 1.33127C15.4804 1.15391 15.7348 1.05427 16 1.05427C16.2652 1.05427 16.5196 1.15391 16.7071 1.33127C16.8946 1.50863 17 1.74919 17 2.00001Z" stroke="#12022F" stroke-width="2" stroke-linecap="round" stroke-linejoin="round"/>
</svg>
