<svg width="14" height="13" viewBox="0 0 14 13" fill="none" xmlns="http://www.w3.org/2000/svg">
<path d="M10.6373 7.00336C10.5553 7.00336 10.4733 6.97728 10.4016 6.9199C8.33707 5.2976 5.66802 5.2976 3.60347 6.9199C3.43441 7.05031 3.19363 7.01901 3.06556 6.85208C2.93749 6.67994 2.96822 6.43477 3.13216 6.30436C5.48359 4.45255 8.5215 4.45255 10.8678 6.30436C11.0369 6.43477 11.0676 6.67994 10.9344 6.85208C10.8678 6.9512 10.7551 7.00336 10.6373 7.00336Z" fill="white"/>
<path d="M12.1272 5.18806C12.0453 5.18806 11.9633 5.16198 11.8916 5.1046C8.92025 2.76766 5.08316 2.76766 2.11698 5.1046C1.94792 5.23501 1.70714 5.20371 1.57907 5.03679C1.44587 4.86986 1.47661 4.61948 1.64566 4.48907C4.89874 1.92783 9.10468 1.92783 12.3629 4.48907C12.5319 4.61948 12.5627 4.86465 12.4295 5.03679C12.3578 5.1359 12.2399 5.18806 12.1272 5.18806Z" fill="white"/>
<path d="M9.67468 8.90734C9.59271 8.90734 9.51074 8.88126 9.43902 8.82388C7.96361 7.66063 6.05275 7.66063 4.57222 8.82388C4.40316 8.95429 4.16238 8.92299 4.03431 8.75607C3.90624 8.58393 3.93697 8.33876 4.10091 8.20835C5.8632 6.82079 8.14292 6.82079 9.90521 8.20835C10.0743 8.33876 10.105 8.58393 9.97181 8.75607C9.90009 8.85518 9.78738 8.90734 9.67468 8.90734Z" fill="white"/>
<path d="M8.33765 10.8165C8.25568 10.8165 8.17372 10.7905 8.102 10.7331C7.43601 10.2062 6.57023 10.2062 5.90425 10.7331C5.73519 10.8635 5.49441 10.8322 5.36634 10.6653C5.23827 10.4931 5.269 10.248 5.43294 10.1175C6.38581 9.36639 7.61532 9.36639 8.56818 10.1175C8.73724 10.248 8.76798 10.4931 8.63478 10.6653C8.56818 10.7592 8.45548 10.8165 8.33765 10.8165Z" fill="white"/>
</svg>
