<svg width="32" height="32" viewBox="0 0 32 32" fill="none" xmlns="http://www.w3.org/2000/svg">
<path d="M14.443 7.99414H11.643C10.7593 7.99414 10.043 8.71048 10.043 9.59414V20.4141C10.043 21.2978 10.7593 22.0141 11.643 22.0141H14.443C15.3266 22.0141 16.043 21.2978 16.043 20.4141V9.59414C16.043 8.71048 15.3266 7.99414 14.443 7.99414Z" fill="#886CFF"/>
<path d="M22.1969 12.8643H19.3969C18.5132 12.8643 17.7969 13.5806 17.7969 14.4643V20.4143C17.7969 21.2979 18.5132 22.0143 19.3969 22.0143H22.1969C23.0805 22.0143 23.7969 21.2979 23.7969 20.4143V14.4643C23.7969 13.5806 23.0805 12.8643 22.1969 12.8643Z" fill="#886CFF"/>
<path d="M25.7052 23.8902H8.08722V6.3002C8.08722 5.4162 7.37122 4.7002 6.48722 4.7002H6.29922C5.41522 4.7002 4.69922 5.4162 4.69922 6.3002V25.7002C4.69922 26.5842 5.41522 27.3002 6.29922 27.3002H6.48722C6.57322 27.3002 6.65722 27.2922 6.74122 27.2782H25.7052C26.5892 27.2782 27.3052 26.5622 27.3052 25.6782V25.4902C27.3052 24.6062 26.5892 23.8902 25.7052 23.8902V23.8902Z" fill="#886CFF"/>
</svg>
