<svg width="12" height="10" viewBox="0 0 12 10" fill="none" xmlns="http://www.w3.org/2000/svg">
<path fill-rule="evenodd" clip-rule="evenodd" d="M5.74402 1.20455C5.79666 0.996964 5.92511 0.819977 6.10114 0.712516C6.27717 0.605054 6.48636 0.575917 6.6827 0.631512L10.8712 1.8182C11.0675 1.87386 11.2349 2.00969 11.3365 2.19582C11.4381 2.38195 11.4657 2.60313 11.4131 2.81074L10.2908 7.23954C10.2354 7.44384 10.1064 7.61696 9.93145 7.72162C9.75651 7.82628 9.5497 7.8541 9.35556 7.7991C9.16142 7.74409 8.99547 7.61066 8.89347 7.42753C8.79146 7.24441 8.76156 7.02625 8.8102 6.82004L9.45355 4.28124L1.76223 8.97662C1.58616 9.0841 1.37693 9.11322 1.18056 9.05759C0.984184 9.00195 0.816757 8.86611 0.715107 8.67994C0.613457 8.49378 0.585911 8.27254 0.638529 8.0649C0.691147 7.85726 0.819618 7.68022 0.995681 7.57274L8.68701 2.87736L6.28597 2.19709C6.08964 2.14143 5.92226 2.00561 5.82063 1.81948C5.719 1.63335 5.69144 1.41216 5.74402 1.20455Z" fill="#8D59FC"/>
</svg>
