<svg width="54" height="53" viewBox="0 0 54 53" fill="none" xmlns="http://www.w3.org/2000/svg">
<path d="M42.7582 28.0222L41.3834 26.7472L42.7582 28.0222ZM25.0805 10.3446L26.3555 11.7193L25.0805 10.3446ZM51.1516 6.6808L53.0108 6.92396L51.1516 6.6808ZM46.422 1.95116L46.6651 3.81032L46.422 1.95116ZM13.2352 27.6265L14.9188 28.4519L13.2352 27.6265ZM25.4762 39.8675L24.6509 38.1839L25.4762 39.8675ZM17.5676 21.393C16.8353 20.6608 15.6482 20.6608 14.9159 21.393C14.1837 22.1253 14.1837 23.3124 14.9159 24.0447L17.5676 21.393ZM29.0581 38.1868C29.7903 38.919 30.9775 38.919 31.7097 38.1868C32.442 37.4546 32.4419 36.2674 31.7097 35.5352L29.0581 38.1868ZM13.1482 42.6062C13.8804 41.874 13.8804 40.6868 13.1482 39.9546C12.4159 39.2223 11.2287 39.2223 10.4965 39.9546L13.1482 42.6062ZM3.42545 47.0256C2.69322 47.7579 2.69321 48.9451 3.42545 49.6773C4.15768 50.4095 5.34487 50.4095 6.0771 49.6773L3.42545 47.0256ZM7.84486 37.3029C8.5771 36.5707 8.5771 35.3835 7.84486 34.6513C7.11263 33.919 5.92545 33.919 5.19321 34.6513L7.84486 37.3029ZM1.65768 38.1868C0.925445 38.919 0.925445 40.1062 1.65768 40.8385C2.38991 41.5707 3.5771 41.5707 4.30933 40.8385L1.65768 38.1868ZM18.4515 47.9095C19.1837 47.1773 19.1837 45.9901 18.4515 45.2579C17.7192 44.5256 16.532 44.5256 15.7998 45.2579L18.4515 47.9095ZM12.2643 48.7934C11.532 49.5256 11.532 50.7128 12.2643 51.4451C12.9965 52.1773 14.1837 52.1773 14.9159 51.4451L12.2643 48.7934ZM23.4896 48.705L25.3458 48.4399L23.4896 48.705ZM36.3943 40.043L38.2505 39.7778L36.3943 40.043ZM4.39767 29.6132L4.66283 27.757L4.66283 27.757L4.39767 29.6132ZM13.0597 16.7085L12.7946 18.5646L12.7946 18.5646L13.0597 16.7085ZM21.3749 37.5749L15.5278 31.7278L12.8762 34.3795L18.7233 40.2266L21.3749 37.5749ZM41.3834 26.7472C36.6493 31.8516 28.9626 36.0701 24.6509 38.1839L26.3016 41.5511C30.6522 39.4182 38.8913 34.9488 44.1329 29.2973L41.3834 26.7472ZM14.9188 28.4519C17.0327 24.1401 21.2512 16.4534 26.3555 11.7193L23.8055 8.96984C18.1539 14.2115 13.6845 22.4506 11.5517 26.8011L14.9188 28.4519ZM49.2924 6.43765C48.5328 12.246 46.5145 21.2149 41.3834 26.7472L44.1329 29.2973C50.1217 22.8402 52.2394 12.8215 53.0108 6.92396L49.2924 6.43765ZM26.3555 11.7193C31.8878 6.58829 40.8567 4.56998 46.6651 3.81032L46.1788 0.0919894C40.2813 0.863308 30.2626 2.98107 23.8055 8.96984L26.3555 11.7193ZM53.0108 6.92396C53.5384 2.88927 50.2135 -0.435696 46.1788 0.0919894L46.6651 3.81032C48.2575 3.60206 49.5007 4.84524 49.2924 6.43765L53.0108 6.92396ZM15.5278 31.7278C14.6199 30.8199 14.398 29.5142 14.9188 28.4519L11.5517 26.8011C10.2812 29.3927 10.9067 32.41 12.8762 34.3795L15.5278 31.7278ZM18.7233 40.2266C20.6928 42.1961 23.7101 42.8216 26.3016 41.5511L24.6509 38.1839C23.5886 38.7047 22.2829 38.4829 21.3749 37.5749L18.7233 40.2266ZM14.9159 24.0447L29.0581 38.1868L31.7097 35.5352L17.5676 21.393L14.9159 24.0447ZM10.4965 39.9546L3.42545 47.0256L6.0771 49.6773L13.1482 42.6062L10.4965 39.9546ZM5.19321 34.6513L1.65768 38.1868L4.30933 40.8385L7.84486 37.3029L5.19321 34.6513ZM15.7998 45.2579L12.2643 48.7934L14.9159 51.4451L18.4515 47.9095L15.7998 45.2579ZM29.9419 13.4381C27.2571 16.1229 27.2571 20.4759 29.942 23.1608L32.5936 20.5091C31.3732 19.2887 31.3732 17.3101 32.5936 16.0897L29.9419 13.4381ZM29.942 23.1608C32.6268 25.8456 36.9798 25.8456 39.6647 23.1608L37.013 20.5091C35.7926 21.7295 33.814 21.7295 32.5936 20.5091L29.942 23.1608ZM39.6647 23.1608C42.3495 20.4759 42.3495 16.1229 39.6647 13.4381L37.013 16.0897C38.2334 17.3101 38.2334 19.2888 37.013 20.5091L39.6647 23.1608ZM39.6647 13.4381C36.9798 10.7532 32.6268 10.7532 29.9419 13.4381L32.5936 16.0897C33.814 14.8693 35.7926 14.8693 37.013 16.0897L39.6647 13.4381ZM34.3614 40.8385L26.4064 48.7934L29.0581 51.4451L37.013 43.4901L34.3614 40.8385ZM25.3458 48.4399L24.2851 41.0152L20.5728 41.5456L21.6334 48.9702L25.3458 48.4399ZM33.831 35.3584L34.5381 40.3081L38.2505 39.7778L37.5433 34.8281L33.831 35.3584ZM26.4064 48.7934C26.0422 49.1576 25.4186 48.9497 25.3458 48.4399L21.6334 48.9702C22.1433 52.5391 26.5088 53.9943 29.0581 51.4451L26.4064 48.7934ZM37.013 43.4901C37.9867 42.5164 38.4452 41.141 38.2505 39.7778L34.5381 40.3081C34.566 40.5029 34.5005 40.6994 34.3614 40.8385L37.013 43.4901ZM9.61258 16.0898L1.65763 24.0447L4.30928 26.6964L12.2642 18.7414L9.61258 16.0898ZM4.1325 31.4693L11.5571 32.53L12.0875 28.8177L4.66283 27.757L4.1325 31.4693ZM18.2746 15.5594L13.3249 14.8523L12.7946 18.5646L17.7443 19.2718L18.2746 15.5594ZM1.65763 24.0447C-0.891635 26.594 0.563538 30.9595 4.1325 31.4693L4.66283 27.757C4.15298 27.6842 3.9451 27.0606 4.30928 26.6964L1.65763 24.0447ZM12.2642 18.7414C12.4033 18.6023 12.5998 18.5368 12.7946 18.5646L13.3249 14.8523C11.9617 14.6576 10.5863 15.116 9.61258 16.0898L12.2642 18.7414Z" fill="#886CFF"/>
</svg>
