<svg width="661" height="178" viewBox="0 0 661 178" fill="none" xmlns="http://www.w3.org/2000/svg">
<g filter="url(#filter0_d_401_1923)">
<path fill-rule="evenodd" clip-rule="evenodd" d="M903.771 9.28427L896.827 30.8194C889.882 51.865 875.992 93.9563 862.734 111.576C848.844 129.196 834.955 122.343 821.065 118.917C807.175 115.002 793.286 115.002 780.027 118.917C766.138 122.343 752.248 129.196 738.358 125.769C724.469 122.343 711.211 108.15 697.321 108.15C683.431 108.15 669.542 122.343 655.652 129.196C641.762 136.537 628.504 136.537 614.614 129.196C600.725 122.343 586.835 108.15 572.945 101.298C559.687 93.9563 545.797 93.9563 531.908 76.3367C518.018 58.717 504.129 23.4778 490.239 20.0518C476.981 16.6257 463.091 44.5235 449.201 41.0974C435.312 37.6714 421.422 2.43216 408.164 13.1997C394.274 23.4778 380.384 79.7627 366.495 93.9563C352.605 108.15 338.716 79.7627 325.457 83.6781C311.568 87.1042 297.678 122.343 283.788 129.195C269.899 136.537 256.64 115.002 242.751 93.9562C228.861 72.9106 214.971 51.8649 201.082 55.291C187.192 58.717 173.934 87.1042 160.044 76.3366C146.154 66.0585 132.265 16.6257 118.375 20.0517C105.117 23.4778 91.2273 79.7627 77.3377 83.6781C63.448 87.1042 49.5584 37.6714 35.6687 13.1997C22.4104 -11.7614 8.52076 -11.7615 1.57594 -11.7615L-5.36888 -11.7615L-5.36888 -32.8071L1.57594 -32.8071C8.52077 -32.8071 22.4104 -32.8071 35.6687 -32.8071C49.5584 -32.8071 63.448 -32.8071 77.3377 -32.8071C91.2273 -32.8071 105.117 -32.8071 118.375 -32.8071C132.265 -32.8071 146.154 -32.8071 160.044 -32.8071C173.934 -32.8071 187.192 -32.8071 201.082 -32.8071C214.971 -32.8071 228.861 -32.8071 242.751 -32.8071C256.64 -32.8071 269.899 -32.8071 283.788 -32.8071C297.678 -32.8071 311.568 -32.8071 325.457 -32.8071C338.716 -32.8071 352.605 -32.8071 366.495 -32.8071C380.384 -32.8071 394.274 -32.8071 408.164 -32.8071C421.422 -32.8071 435.312 -32.8071 449.201 -32.8071C463.091 -32.8071 476.981 -32.8071 490.239 -32.8071C504.129 -32.8071 518.018 -32.8071 531.908 -32.8071C545.797 -32.8071 559.687 -32.8071 572.945 -32.8071C586.835 -32.807 600.725 -32.807 614.614 -32.807C628.504 -32.807 641.762 -32.807 655.652 -32.807C669.542 -32.807 683.431 -32.807 697.321 -32.807C711.211 -32.807 724.469 -32.807 738.358 -32.807C752.248 -32.807 766.138 -32.807 780.027 -32.807C793.286 -32.807 807.175 -32.807 821.065 -32.807C834.955 -32.807 848.844 -32.807 862.734 -32.807C875.992 -32.807 889.882 -32.807 896.827 -32.807L903.771 -32.807L903.771 9.28427Z" stroke="#9664FF" stroke-width="5.40351" shape-rendering="crispEdges"/>
</g>
<defs>
<filter id="filter0_d_401_1923" x="-43.1931" y="-65.2282" width="984.789" height="243.158" filterUnits="userSpaceOnUse" color-interpolation-filters="sRGB">
<feFlood flood-opacity="0" result="BackgroundImageFix"/>
<feColorMatrix in="SourceAlpha" type="matrix" values="0 0 0 0 0 0 0 0 0 0 0 0 0 0 0 0 0 0 127 0" result="hardAlpha"/>
<feOffset dy="5.40351"/>
<feGaussianBlur stdDeviation="17.5614"/>
<feComposite in2="hardAlpha" operator="out"/>
<feColorMatrix type="matrix" values="0 0 0 0 0.588235 0 0 0 0 0.392157 0 0 0 0 1 0 0 0 0.5 0"/>
<feBlend mode="normal" in2="BackgroundImageFix" result="effect1_dropShadow_401_1923"/>
<feBlend mode="normal" in="SourceGraphic" in2="effect1_dropShadow_401_1923" result="shape"/>
</filter>
</defs>
</svg>
